#!OML:ASF E:\motion texture\Top Level 1\Subject 1\Session 1\male.ASF
:FULLY-SPECIFIED
:DEGREES
470
root 0.599268 17.824 8.534 -534.955 -78.0853 541.2
lowerback 5.75877 -3.64444 11.8707
upperback 2.43999 -5.69758 15.6113
thorax 0.0373191 -3.5213 10.6
lowerneck 9.98783 -20.5247 -18.4197
upperneck 10.2522 -36.2458 27.0543
head 10.2949 -17.6898 7.49745
rclavicle -5.24792e-014 -1.59028e-014
rhumerus -30.0034 -27.4842 -38.3182
rradius 18.8792
rwrist 27.7784
rhand -11.8884 -28.8473
rfingers 7.12502
rthumb 14.1645 -58.3444
lclavicle -5.24792e-014 -1.59028e-014
lhumerus -43.685 18.0788 76.8831
lradius 35.2566
lwrist -37.0016
lhand -8.70893 9.37131
lfingers 7.12502
lthumb 17.2266 38.6278
rfemur -11.4197 9.38657 12.2095
rtibia 40.5653
rfoot -6.86151 7.29641
rtoes -0.690849
lfemur -29.6037 3.84975 -17.5926
ltibia 33.1893
lfoot -11.0855 5.34393
ltoes -12.5447
471
root 0.442979 17.7981 8.53864 -535.589 -78.1401 541.633
lowerback 5.68368 -3.67578 11.6188
upperback 2.44034 -5.74159 15.488
thorax 0.0868905 -3.5333 10.5868
lowerneck 9.92376 -20.4736 -18.4485
upperneck 10.4557 -36.2231 26.9482
head 10.353 -17.6786 7.46433
rclavicle 2.70347e-014 4.77083e-014
rhumerus -29.889 -27.6743 -38.7293
rradius 18.8891
rwrist 27.7405
rhand -11.9179 -29.0989
rfingers 7.12502
rthumb 14.1362 -58.598
lclavicle 2.70347e-014 4.77083e-014
lhumerus -43.1669 17.7257 76.7434
lradius 35.8797
lwrist -36.6419
lhand -8.96324 9.81559
lfingers 7.12502
lthumb 16.9818 39.0932
rfemur -11.39 9.34182 12.2575
rtibia 41.5969
rfoot -5.93115 7.42046
rtoes -0.566607
lfemur -29.4306 3.60617 -17.5093
ltibia 33.1043
lfoot -11.169 5.17793
ltoes -12.1923
472
root 0.287126 17.7712 8.54273 -536.208 -78.2044 542.041
lowerback 5.61199 -3.70912 11.3527
upperback 2.44187 -5.78691 15.3589
thorax 0.136637 -3.5457 10.5755
lowerneck 9.85627 -20.4189 -18.4778
upperneck 10.6706 -36.1968 26.8362
head 10.4137 -17.6656 7.43001
rclavicle -1.43125e-014 7.95139e-014
rhumerus -29.762 -27.8437 -39.1965
rradius 18.9118
rwrist 27.6633
rhand -11.9564 -29.3478
rfingers 7.12502
rthumb 14.099 -58.8495
lclavicle -1.43125e-014 7.95139e-014
lhumerus -42.6158 17.374 76.5966
lradius 36.513
lwrist -36.2849
lhand -9.24196 10.2876
lfingers 7.12502
lthumb 16.7135 39.5881
rfemur -11.4017 9.28597 12.3023
rtibia 42.6858
rfoot -4.94739 7.49998
rtoes -0.38623
lfemur -29.2376 3.38285 -17.4483
ltibia 33.1064
lfoot -11.2667 4.99428
ltoes -11.8097
473
root 0.131738 17.7435 8.54629 -536.806 -78.2777 542.419
lowerback 5.54411 -3.74366 11.0735
upperback 2.44445 -5.83215 15.2232
thorax 0.185885 -3.55775 10.5645
lowerneck 9.78166 -20.3626 -18.504
upperneck 10.8974 -36.1682 26.7165
head 10.4771 -17.6508 7.39272
rclavicle -5.40694e-014 5.08889e-014
rhumerus -29.623 -27.9872 -39.7225
rradius 18.9497
rwrist 27.5408
rhand -12.0031 -29.5922
rfingers 7.12502
rthumb 14.054 -59.0971
lclavicle -5.40694e-014 5.08889e-014
lhumerus -42.0294 17.0245 76.4465
lradius 37.1521
lwrist -35.9341
lhand -9.5492 10.7795
lfingers 7.12502
lthumb 16.4177 40.1047
rfemur -11.4545 9.21665 12.3425
rtibia 43.826
rfoot -3.92116 7.53312
rtoes -0.158692
lfemur -29.024 3.17989 -17.4108
ltibia 33.1896
lfoot -11.3811 4.79535
ltoes -11.4008
474
root -0.0230768 17.7153 8.54926 -537.382 -78.3595 542.766
lowerback 5.47961 -3.77942 10.7808
upperback 2.44818 -5.87769 15.0814
thorax 0.235161 -3.56972 10.5546
lowerneck 9.7038 -20.3025 -18.5324
upperneck 11.1334 -36.1354 26.5937
head 10.5433 -17.6341 7.35535
rclavicle -7.95139e-015 -1.49486e-013
rhumerus -29.4674 -28.096 -40.312
rradius 19.0035
rwrist 27.3688
rhand -12.0615 -29.8309
rfingers 7.12502
rthumb 13.9977 -59.3396
lclavicle -7.95139e-015 -1.49486e-013
lhumerus -41.4064 16.6811 76.297
lradius 37.7914
lwrist -35.5953
lhand -9.87745 11.2891
lfingers 7.12502
lthumb 16.1017 40.6401
rfemur -11.5494 9.13344 12.3784
rtibia 45.0135
rfoot -2.86497 7.51948
rtoes 0.108241
lfemur -28.7889 2.9961 -17.3955
ltibia 33.3458
lfoot -11.5129 4.58512
ltoes -10.9695
475
root -0.177262 17.6868 8.55166 -537.932 -78.4492 543.082
lowerback 5.41969 -3.81603 10.4757
upperback 2.45231 -5.92256 14.9334
thorax 0.282818 -3.58114 10.5453
lowerneck 9.61929 -20.2396 -18.5598
upperneck 11.3808 -36.0989 26.4643
head 10.6123 -17.6152 7.316
rclavicle -1.1609e-013 1.27222e-014
rhumerus -29.2946 -28.1594 -40.9684
rradius 19.0758
rwrist 27.1425
rhand -12.1328 -30.0615
rfingers 7.12502
rthumb 13.929 -59.5749
lclavicle -1.1609e-013 1.27222e-014
lhumerus -40.7482 16.3453 76.1518
lradius 38.4284
lwrist -35.2744
lhand -10.2235 11.8089
lfingers 7.12502
lthumb 15.7684 41.1866
rfemur -11.6878 9.03337 12.4088
rtibia 46.2433
rfoot -1.79 7.46178
rtoes 0.417577
lfemur -28.5329 2.83108 -17.4019
ltibia 33.569
lfoot -11.6642 4.36712
ltoes -10.5196
476
root -0.330797 17.6583 8.55345 -538.457 -78.5463 543.367
lowerback 5.36327 -3.85325 10.1603
upperback 2.4573 -5.96683 14.7791
thorax 0.329833 -3.59204 10.5354
lowerneck 9.53077 -20.1729 -18.5876
upperneck 11.6364 -36.057 26.3316
head 10.6833 -17.5937 7.27659
rclavicle -5.56597e-014 -3.49861e-014
rhumerus -29.1035 -28.1756 -41.6924
rradius 19.1667
rwrist 26.8677
rhand -12.2233 -30.2795
rfingers 7.12502
rthumb 13.8418 -59.7989
lclavicle -5.56597e-014 -3.49861e-014
lhumerus -40.0545 16.0164 76.0155
lradius 39.0612
lwrist -34.9725
lhand -10.5891 12.3338
lfingers 7.12502
lthumb 15.4163 41.739
rfemur -11.8676 8.91704 12.4352
rtibia 47.5067
rfoot -0.707818 7.35922
rtoes 0.742726
lfemur -28.2542 2.68349 -17.4276
ltibia 33.8509
lfoot -11.8361 4.14571
ltoes -10.0578
477
root -0.483456 17.63 8.55463 -538.953 -78.6516 543.619
lowerback 5.31155 -3.89085 9.83447
upperback 2.46186 -6.0097 14.6187
thorax 0.374094 -3.60206 10.5252
lowerneck 9.43542 -20.104 -18.6137
upperneck 11.9018 -36.0116 26.1932
head 10.7567 -17.5701 7.2353
rclavicle -1.59028e-015 -1.68569e-013
rhumerus -28.8934 -28.1368 -42.4857
rradius 19.2776
rwrist 26.5402
rhand -12.3404 -30.4835
rfingers 7.12502
rthumb 13.7289 -60.0106
lclavicle -1.59028e-015 -1.68569e-013
lhumerus -39.3263 15.6952 75.8926
lradius 39.6868
lwrist -34.693
lhand -10.9588 12.8631
lfingers 7.12502
lthumb 15.0601 42.2953
rfemur -12.0899 8.78328 12.4566
rtibia 48.7962
rfoot 0.371472 7.21085
rtoes 1.08429
lfemur -27.9543 2.55094 -17.4722
ltibia 34.1829
lfoot -12.028 3.92442
ltoes -9.59485
478
root -0.635247 17.6023 8.55521 -539.418 -78.7637 543.837
lowerback 5.2637 -3.92777 9.50039
upperback 2.46721 -6.05017 14.4517
thorax 0.417056 -3.61065 10.5129
lowerneck 9.33099 -20.0336 -18.636
upperneck 12.175 -35.9623 26.0504
head 10.8322 -17.5439 7.19209
rclavicle 1.59028e-015 1.59028e-014
rhumerus -28.6632 -28.0415 -43.3489
rradius 19.4096
rwrist 26.1608
rhand -12.4858 -30.6732
rfingers 7.12502
rthumb 13.5888 -60.2097
lclavicle 1.59028e-015 1.59028e-014
lhumerus -38.5614 15.3798 75.7884
lradius 40.303
lwrist -34.4358
lhand -11.3338 13.3882
lfingers 7.12502
lthumb 14.6989 42.8471
rfemur -12.3535 8.63333 12.4732
rtibia 50.1031
rfoot 1.43423 7.01832
rtoes 1.43073
lfemur -27.6315 2.43197 -17.5336
ltibia 34.5548
lfoot -12.2382 3.70673
ltoes -9.13354
479
root -0.786098 17.5754 8.55518 -539.854 -78.8825 544.026
lowerback 5.2194 -3.96462 9.15967
upperback 2.47223 -6.08909 14.279
thorax 0.457784 -3.61832 10.4986
lowerneck 9.22064 -19.9606 -18.6573
upperneck 12.4561 -35.9079 25.9026
head 10.9093 -17.5152 7.14784
rclavicle -6.36111e-014 -7.31528e-014
rhumerus -28.4118 -27.8814 -44.2821
rradius 19.5637
rwrist 25.7254
rhand -12.6627 -30.8491
rfingers 7.12502
rthumb 13.4184 -60.397
lclavicle -6.36111e-014 -7.31528e-014
lhumerus -37.7649 15.0708 75.7063
lradius 40.9096
lwrist -34.1998
lhand -11.711 13.9088
lfingers 7.12502
lthumb 14.3355 43.3939
rfemur -12.6571 8.46615 12.4865
rtibia 51.4196
rfoot 2.46926 6.78394
rtoes 1.77586
lfemur -27.2848 2.32438 -17.609
ltibia 34.9566
lfoot -12.4678 3.49489
ltoes -8.67995
480
root -0.935924 17.5495 8.55453 -540.252 -79.0085 544.176
lowerback 5.18034 -4.00134 8.81157
upperback 2.47493 -6.12574 14.1008
thorax 0.493213 -3.62471 10.4836
lowerneck 9.10482 -19.8844 -18.6764
upperneck 12.7441 -35.8467 25.7491
head 10.9867 -17.4831 7.10267
rclavicle 1.11319e-014 -4.13472e-014
rhumerus -28.1403 -27.6489 -45.2835
rradius 19.7426
rwrist 25.2338
rhand -12.871 -31.0129
rfingers 7.12502
rthumb 13.2176 -60.5739
lclavicle 1.11319e-014 -4.13472e-014
lhumerus -36.9398 14.767 75.6512
lradius 41.5049
lwrist -33.9842
lhand -12.0884 14.42
lfingers 7.12502
lthumb 13.9718 43.9305
rfemur -13.0022 8.27922 12.4945
rtibia 52.7391
rfoot 3.46444 6.51267
rtoes 2.1112
lfemur -26.9145 2.22426 -17.6983
ltibia 35.3782
lfoot -12.7155 3.28968
ltoes -8.23661
481
root -1.08467 17.525 8.55328 -540.616 -79.1413 544.295
lowerback 5.14425 -4.03781 8.45988
upperback 2.47674 -6.16078 13.9174
thorax 0.525947 -3.63016 10.4655
lowerneck 8.98113 -19.8067 -18.6929
upperneck 13.037 -35.7805 25.5914
head 11.065 -17.4482 7.05629
rclavicle 1.11319e-014 -1.11319e-013
rhumerus -27.8467 -27.3417 -46.3537
rradius 19.948
rwrist 24.687
rhand -13.1084 -31.1705
rfingers 7.12502
rthumb 12.9887 -60.7462
lclavicle 1.11319e-014 -1.11319e-013
lhumerus -36.0857 14.4674 75.6268
lradius 42.0879
lwrist -33.7875
lhand -12.4612 14.9184
lfingers 7.12502
lthumb 13.6126 44.4533
rfemur -13.3845 8.07339 12.4997
rtibia 54.0488
rfoot 4.40726 6.20966
rtoes 2.43089
lfemur -26.5201 2.12944 -17.7979
ltibia 35.8086
lfoot -12.9781 3.09272
ltoes -7.8161
482
root -1.23226 17.502 8.5514 -540.94 -79.281 544.378
lowerback 5.10932 -4.07303 8.10501
upperback 2.47837 -6.19331 13.7283
thorax 0.557576 -3.63419 10.4435
lowerneck 8.84812 -19.73 -18.7037
upperneck 13.332 -35.7107 25.4297
head 11.1431 -17.4108 7.00768
rclavicle -5.40694e-014 4.45278e-014
rhumerus -27.533 -26.9621 -47.4879
rradius 20.1813
rwrist 24.0879
rhand -13.3758 -31.3146
rfingers 7.12502
rthumb 12.7309 -60.9065
lclavicle -5.40694e-014 4.45278e-014
lhumerus -35.2033 14.1675 75.6374
lradius 42.6585
lwrist -33.6062
lhand -12.8244 15.3977
lfingers 7.12502
lthumb 13.2625 44.9558
rfemur -13.8005 7.84919 12.5018
rtibia 55.3369
rfoot 5.28238 5.87832
rtoes 2.72538
lfemur -26.102 2.03805 -17.9076
ltibia 36.238
lfoot -13.2525 2.90427
ltoes -7.43386
483
root -1.37868 17.4808 8.5489 -541.226 -79.4268 544.428
lowerback 5.07731 -4.10785 7.74789
upperback 2.47738 -6.22399 13.5353
thorax 0.584702 -3.63723 10.4195
lowerneck 8.71003 -19.6513 -18.7139
upperneck 13.6286 -35.6348 25.2659
head 11.2211 -17.3706 6.95926
rclavicle -2.38542e-015 -1.04958e-013
rhumerus -27.2002 -26.5018 -48.6817
rradius 20.4438
rwrist 23.4392
rhand -13.665 -31.4382
rfingers 7.12502
rthumb 12.4521 -61.0473
lclavicle -2.38542e-015 -1.04958e-013
lhumerus -34.3016 13.8667 75.6859
lradius 43.2172
lwrist -33.442
lhand -13.1838 15.8566
lfingers 7.12502
lthumb 12.9161 45.4369
rfemur -14.2503 7.6065 12.5023
rtibia 56.5964
rfoot 6.08642 5.52162
rtoes 3.00853
lfemur -25.6603 1.94767 -18.0244
ltibia 36.6573
lfoot -13.5382 2.72411
ltoes -7.07821
